<mxfile host="app.diagrams.net" modified="2021-04-14T21:55:03.252Z" agent="5.0 (Windows NT 10.0; Win64; x64) AppleWebKit/537.36 (KHTML, like Gecko) Chrome/89.0.4389.128 Safari/537.36" etag="94FKklY2_zDPJ3arGESM" version="14.6.0" type="github">
  <diagram name="Page-1" id="f1b7ffb7-ca1e-a977-7cf5-a751b3c06c05">
    <mxGraphModel dx="1209" dy="586" grid="1" gridSize="10" guides="1" tooltips="1" connect="1" arrows="1" fold="1" page="1" pageScale="1" pageWidth="826" pageHeight="1169" math="0" shadow="0">
      <root>
        <mxCell id="0" />
        <mxCell id="1" parent="0" />
        <mxCell id="2" value="Frederick Cashaw Cohort 14a&#xa;Wireframe for Project 2" style="text;spacingTop=-5;fontSize=18;fontStyle=0;" parent="1" vertex="1">
          <mxGeometry x="110" y="30" width="610" height="20" as="geometry" />
        </mxCell>
        <mxCell id="DBfyivFqZNMxuBKFV9pS-65" value="" style="whiteSpace=wrap;html=1;aspect=fixed;rounded=0;sketch=0;gradientColor=#ffd966;fillColor=#fff2cc;strokeColor=#d6b656;" vertex="1" parent="1">
          <mxGeometry x="35" y="1270" width="570" height="570" as="geometry" />
        </mxCell>
        <mxCell id="DBfyivFqZNMxuBKFV9pS-102" value="Search Coffee" style="strokeWidth=1;shadow=0;dashed=0;align=center;html=1;shape=mxgraph.mockup.forms.searchBox;mainText=;strokeColor2=#008cff;fontSize=17;align=left;spacingLeft=3;rounded=0;sketch=0;fontColor=#E6E6E6;" vertex="1" parent="1">
          <mxGeometry x="135" y="1410" width="240" height="30" as="geometry" />
        </mxCell>
        <mxCell id="DBfyivFqZNMxuBKFV9pS-108" value="Coffee In The Morning" style="shape=tapeData;whiteSpace=wrap;html=1;perimeter=ellipsePerimeter;rounded=0;sketch=0;strokeColor=#82b366;fillColor=#d5e8d4;gradientColor=#97d077;" vertex="1" parent="1">
          <mxGeometry x="45" y="1280" width="105" height="80" as="geometry" />
        </mxCell>
        <mxCell id="DBfyivFqZNMxuBKFV9pS-132" value="" style="verticalLabelPosition=bottom;shadow=0;dashed=0;align=center;html=1;verticalAlign=top;strokeWidth=1;shape=mxgraph.mockup.graphics.simpleIcon;strokeColor=#999999;fillColor=#ffffff;rounded=0;sketch=0;fontColor=#EEEEEE;" vertex="1" parent="1">
          <mxGeometry x="140" y="1480" width="50" height="50" as="geometry" />
        </mxCell>
        <mxCell id="DBfyivFqZNMxuBKFV9pS-133" value="" style="verticalLabelPosition=bottom;shadow=0;dashed=0;align=center;html=1;verticalAlign=top;strokeWidth=1;shape=mxgraph.mockup.graphics.simpleIcon;strokeColor=#999999;fillColor=#ffffff;rounded=0;sketch=0;fontColor=#EEEEEE;" vertex="1" parent="1">
          <mxGeometry x="320" y="1480" width="50" height="50" as="geometry" />
        </mxCell>
        <mxCell id="DBfyivFqZNMxuBKFV9pS-134" value="" style="verticalLabelPosition=bottom;shadow=0;dashed=0;align=center;html=1;verticalAlign=top;strokeWidth=1;shape=mxgraph.mockup.graphics.simpleIcon;strokeColor=#999999;fillColor=#ffffff;rounded=0;sketch=0;fontColor=#EEEEEE;" vertex="1" parent="1">
          <mxGeometry x="140" y="1620" width="50" height="50" as="geometry" />
        </mxCell>
        <mxCell id="DBfyivFqZNMxuBKFV9pS-135" value="" style="verticalLabelPosition=bottom;shadow=0;dashed=0;align=center;html=1;verticalAlign=top;strokeWidth=1;shape=mxgraph.mockup.graphics.simpleIcon;strokeColor=#999999;fillColor=#ffffff;rounded=0;sketch=0;fontColor=#EEEEEE;" vertex="1" parent="1">
          <mxGeometry x="230" y="1480" width="50" height="50" as="geometry" />
        </mxCell>
        <mxCell id="DBfyivFqZNMxuBKFV9pS-136" value="" style="verticalLabelPosition=bottom;shadow=0;dashed=0;align=center;html=1;verticalAlign=top;strokeWidth=1;shape=mxgraph.mockup.graphics.simpleIcon;strokeColor=#999999;fillColor=#ffffff;rounded=0;sketch=0;fontColor=#EEEEEE;" vertex="1" parent="1">
          <mxGeometry x="320" y="1550" width="50" height="50" as="geometry" />
        </mxCell>
        <mxCell id="DBfyivFqZNMxuBKFV9pS-137" value="" style="verticalLabelPosition=bottom;shadow=0;dashed=0;align=center;html=1;verticalAlign=top;strokeWidth=1;shape=mxgraph.mockup.graphics.simpleIcon;strokeColor=#999999;fillColor=#ffffff;rounded=0;sketch=0;fontColor=#EEEEEE;" vertex="1" parent="1">
          <mxGeometry x="410" y="1480" width="50" height="50" as="geometry" />
        </mxCell>
        <mxCell id="DBfyivFqZNMxuBKFV9pS-138" value="" style="verticalLabelPosition=bottom;shadow=0;dashed=0;align=center;html=1;verticalAlign=top;strokeWidth=1;shape=mxgraph.mockup.graphics.simpleIcon;strokeColor=#999999;fillColor=#ffffff;rounded=0;sketch=0;fontColor=#EEEEEE;" vertex="1" parent="1">
          <mxGeometry x="140" y="1550" width="50" height="50" as="geometry" />
        </mxCell>
        <mxCell id="DBfyivFqZNMxuBKFV9pS-139" value="" style="verticalLabelPosition=bottom;shadow=0;dashed=0;align=center;html=1;verticalAlign=top;strokeWidth=1;shape=mxgraph.mockup.graphics.simpleIcon;strokeColor=#999999;fillColor=#ffffff;rounded=0;sketch=0;fontColor=#EEEEEE;" vertex="1" parent="1">
          <mxGeometry x="230" y="1550" width="50" height="50" as="geometry" />
        </mxCell>
        <mxCell id="DBfyivFqZNMxuBKFV9pS-140" value="" style="verticalLabelPosition=bottom;shadow=0;dashed=0;align=center;html=1;verticalAlign=top;strokeWidth=1;shape=mxgraph.mockup.graphics.simpleIcon;strokeColor=#999999;fillColor=#ffffff;rounded=0;sketch=0;fontColor=#EEEEEE;" vertex="1" parent="1">
          <mxGeometry x="410" y="1550" width="50" height="50" as="geometry" />
        </mxCell>
        <mxCell id="DBfyivFqZNMxuBKFV9pS-142" value="" style="verticalLabelPosition=bottom;shadow=0;dashed=0;align=center;html=1;verticalAlign=top;strokeWidth=1;shape=mxgraph.mockup.graphics.simpleIcon;strokeColor=#999999;fillColor=#ffffff;rounded=0;sketch=0;fontColor=#EEEEEE;" vertex="1" parent="1">
          <mxGeometry x="230" y="1620" width="50" height="50" as="geometry" />
        </mxCell>
        <mxCell id="DBfyivFqZNMxuBKFV9pS-143" value="" style="verticalLabelPosition=bottom;shadow=0;dashed=0;align=center;html=1;verticalAlign=top;strokeWidth=1;shape=mxgraph.mockup.graphics.simpleIcon;strokeColor=#999999;fillColor=#ffffff;rounded=0;sketch=0;fontColor=#EEEEEE;" vertex="1" parent="1">
          <mxGeometry x="320" y="1620" width="50" height="50" as="geometry" />
        </mxCell>
        <mxCell id="DBfyivFqZNMxuBKFV9pS-144" value="" style="verticalLabelPosition=bottom;shadow=0;dashed=0;align=center;html=1;verticalAlign=top;strokeWidth=1;shape=mxgraph.mockup.graphics.simpleIcon;strokeColor=#999999;fillColor=#ffffff;rounded=0;sketch=0;fontColor=#EEEEEE;" vertex="1" parent="1">
          <mxGeometry x="410" y="1620" width="50" height="50" as="geometry" />
        </mxCell>
        <mxCell id="DBfyivFqZNMxuBKFV9pS-145" value="" style="verticalLabelPosition=bottom;shadow=0;dashed=0;align=center;html=1;verticalAlign=top;strokeWidth=1;shape=mxgraph.mockup.graphics.simpleIcon;strokeColor=#999999;fillColor=#ffffff;rounded=0;sketch=0;fontColor=#EEEEEE;" vertex="1" parent="1">
          <mxGeometry x="140" y="1704" width="50" height="50" as="geometry" />
        </mxCell>
        <mxCell id="DBfyivFqZNMxuBKFV9pS-146" value="" style="verticalLabelPosition=bottom;shadow=0;dashed=0;align=center;html=1;verticalAlign=top;strokeWidth=1;shape=mxgraph.mockup.graphics.simpleIcon;strokeColor=#999999;fillColor=#ffffff;rounded=0;sketch=0;fontColor=#EEEEEE;" vertex="1" parent="1">
          <mxGeometry x="235" y="1704" width="50" height="50" as="geometry" />
        </mxCell>
        <mxCell id="DBfyivFqZNMxuBKFV9pS-147" value="" style="verticalLabelPosition=bottom;shadow=0;dashed=0;align=center;html=1;verticalAlign=top;strokeWidth=1;shape=mxgraph.mockup.graphics.simpleIcon;strokeColor=#999999;fillColor=#ffffff;rounded=0;sketch=0;fontColor=#EEEEEE;" vertex="1" parent="1">
          <mxGeometry x="320" y="1704" width="50" height="50" as="geometry" />
        </mxCell>
        <mxCell id="DBfyivFqZNMxuBKFV9pS-150" value="" style="verticalLabelPosition=bottom;shadow=0;dashed=0;align=center;html=1;verticalAlign=top;strokeWidth=1;shape=mxgraph.mockup.graphics.simpleIcon;strokeColor=#999999;fillColor=#ffffff;rounded=0;sketch=0;fontColor=#EEEEEE;" vertex="1" parent="1">
          <mxGeometry x="410" y="1704" width="50" height="50" as="geometry" />
        </mxCell>
        <mxCell id="DBfyivFqZNMxuBKFV9pS-164" value="Explore Coffee GIFs" style="text;html=1;strokeColor=none;fillColor=none;align=center;verticalAlign=middle;whiteSpace=wrap;rounded=0;sketch=0;fontStyle=1;fontColor=#1A1A1A;" vertex="1" parent="1">
          <mxGeometry x="90" y="1440" width="220" height="30" as="geometry" />
        </mxCell>
        <mxCell id="DBfyivFqZNMxuBKFV9pS-168" value="" style="rounded=0;whiteSpace=wrap;html=1;sketch=0;strokeColor=#d6b656;fillColor=#fff2cc;direction=south;gradientColor=#ffd966;" vertex="1" parent="1">
          <mxGeometry x="130" y="660" width="350" height="410" as="geometry" />
        </mxCell>
        <mxCell id="DBfyivFqZNMxuBKFV9pS-170" value="&lt;span&gt;Coffee In The Morning&lt;/span&gt;" style="shape=tapeData;whiteSpace=wrap;html=1;perimeter=ellipsePerimeter;rounded=0;sketch=0;strokeColor=#82b366;fillColor=#d5e8d4;gradientColor=#97d077;fontStyle=0" vertex="1" parent="1">
          <mxGeometry x="140" y="660" width="60" height="70" as="geometry" />
        </mxCell>
        <mxCell id="DBfyivFqZNMxuBKFV9pS-172" value="&lt;b&gt;Log in&lt;/b&gt;" style="rounded=0;whiteSpace=wrap;html=1;sketch=0;strokeColor=#006EAF;fillColor=#1ba1e2;fontColor=#ffffff;" vertex="1" parent="1">
          <mxGeometry x="410" y="660" width="70" height="20" as="geometry" />
        </mxCell>
        <mxCell id="DBfyivFqZNMxuBKFV9pS-177" value="Coffee Gifs" style="strokeWidth=1;shadow=0;dashed=0;align=center;html=1;shape=mxgraph.mockup.forms.searchBox;mainText=;strokeColor2=#008cff;fontSize=17;align=left;spacingLeft=3;rounded=0;sketch=0;fontColor=#E6E6E6;" vertex="1" parent="1">
          <mxGeometry x="210" y="740" width="100" height="20" as="geometry" />
        </mxCell>
        <mxCell id="DBfyivFqZNMxuBKFV9pS-179" value="Home" style="text;html=1;strokeColor=none;fillColor=none;align=center;verticalAlign=middle;whiteSpace=wrap;rounded=0;sketch=0;fontColor=#1A1A1A;fontStyle=1" vertex="1" parent="1">
          <mxGeometry x="210" y="660" width="40" height="20" as="geometry" />
        </mxCell>
        <mxCell id="DBfyivFqZNMxuBKFV9pS-180" value="About" style="text;html=1;strokeColor=none;fillColor=none;align=center;verticalAlign=middle;whiteSpace=wrap;rounded=0;sketch=0;fontColor=#1A1A1A;fontStyle=1" vertex="1" parent="1">
          <mxGeometry x="250" y="660" width="40" height="20" as="geometry" />
        </mxCell>
        <mxCell id="DBfyivFqZNMxuBKFV9pS-181" value="Purchase" style="text;html=1;strokeColor=none;fillColor=none;align=center;verticalAlign=middle;whiteSpace=wrap;rounded=0;sketch=0;fontColor=#1A1A1A;fontStyle=1" vertex="1" parent="1">
          <mxGeometry x="300" y="660" width="40" height="20" as="geometry" />
        </mxCell>
        <mxCell id="DBfyivFqZNMxuBKFV9pS-182" value="Contacts" style="text;html=1;strokeColor=none;fillColor=none;align=center;verticalAlign=middle;whiteSpace=wrap;rounded=0;sketch=0;fontColor=#1A1A1A;fontStyle=1" vertex="1" parent="1">
          <mxGeometry x="360" y="660" width="40" height="20" as="geometry" />
        </mxCell>
        <mxCell id="DBfyivFqZNMxuBKFV9pS-183" value="" style="verticalLabelPosition=bottom;shadow=0;dashed=0;align=center;html=1;verticalAlign=top;strokeWidth=1;shape=mxgraph.mockup.graphics.simpleIcon;strokeColor=#999999;fillColor=#ffffff;rounded=0;sketch=0;fontColor=#1A1A1A;" vertex="1" parent="1">
          <mxGeometry x="230" y="810" width="50" height="50" as="geometry" />
        </mxCell>
        <mxCell id="DBfyivFqZNMxuBKFV9pS-184" value="" style="verticalLabelPosition=bottom;shadow=0;dashed=0;align=center;html=1;verticalAlign=top;strokeWidth=1;shape=mxgraph.mockup.graphics.simpleIcon;strokeColor=#999999;fillColor=#ffffff;rounded=0;sketch=0;fontColor=#1A1A1A;" vertex="1" parent="1">
          <mxGeometry x="320" y="810" width="50" height="50" as="geometry" />
        </mxCell>
        <mxCell id="DBfyivFqZNMxuBKFV9pS-186" value="" style="verticalLabelPosition=bottom;shadow=0;dashed=0;align=center;html=1;verticalAlign=top;strokeWidth=1;shape=mxgraph.mockup.graphics.simpleIcon;strokeColor=#999999;fillColor=#ffffff;rounded=0;sketch=0;fontColor=#1A1A1A;" vertex="1" parent="1">
          <mxGeometry x="230" y="890" width="50" height="50" as="geometry" />
        </mxCell>
        <mxCell id="DBfyivFqZNMxuBKFV9pS-187" value="" style="verticalLabelPosition=bottom;shadow=0;dashed=0;align=center;html=1;verticalAlign=top;strokeWidth=1;shape=mxgraph.mockup.graphics.simpleIcon;strokeColor=#999999;fillColor=#ffffff;rounded=0;sketch=0;fontColor=#1A1A1A;" vertex="1" parent="1">
          <mxGeometry x="320" y="890" width="50" height="50" as="geometry" />
        </mxCell>
        <mxCell id="DBfyivFqZNMxuBKFV9pS-189" value="" style="verticalLabelPosition=bottom;shadow=0;dashed=0;align=center;html=1;verticalAlign=top;strokeWidth=1;shape=mxgraph.mockup.graphics.simpleIcon;strokeColor=#999999;fillColor=#ffffff;rounded=0;sketch=0;fontColor=#1A1A1A;" vertex="1" parent="1">
          <mxGeometry x="230" y="970" width="50" height="50" as="geometry" />
        </mxCell>
        <mxCell id="DBfyivFqZNMxuBKFV9pS-190" value="" style="verticalLabelPosition=bottom;shadow=0;dashed=0;align=center;html=1;verticalAlign=top;strokeWidth=1;shape=mxgraph.mockup.graphics.simpleIcon;strokeColor=#999999;fillColor=#ffffff;rounded=0;sketch=0;fontColor=#1A1A1A;" vertex="1" parent="1">
          <mxGeometry x="320" y="970" width="50" height="50" as="geometry" />
        </mxCell>
        <mxCell id="DBfyivFqZNMxuBKFV9pS-192" value="Explore Coffee GIFs" style="text;html=1;strokeColor=none;fillColor=none;align=center;verticalAlign=middle;whiteSpace=wrap;rounded=0;sketch=0;fontColor=#1A1A1A;fontStyle=1" vertex="1" parent="1">
          <mxGeometry x="210" y="770" width="120" height="20" as="geometry" />
        </mxCell>
        <mxCell id="DBfyivFqZNMxuBKFV9pS-193" value="Log In" style="rounded=0;whiteSpace=wrap;html=1;sketch=0;strokeColor=#006EAF;fillColor=#1ba1e2;fontSize=17;fontColor=#ffffff;" vertex="1" parent="1">
          <mxGeometry x="500" y="1280" width="90" height="30" as="geometry" />
        </mxCell>
        <mxCell id="DBfyivFqZNMxuBKFV9pS-194" value="Home" style="text;html=1;strokeColor=none;fillColor=none;align=center;verticalAlign=middle;whiteSpace=wrap;rounded=0;sketch=0;fontSize=17;fontColor=#1A1A1A;fontStyle=1" vertex="1" parent="1">
          <mxGeometry x="190" y="1285" width="40" height="20" as="geometry" />
        </mxCell>
        <mxCell id="DBfyivFqZNMxuBKFV9pS-196" value="About" style="text;html=1;strokeColor=none;fillColor=none;align=center;verticalAlign=middle;whiteSpace=wrap;rounded=0;sketch=0;fontSize=17;fontColor=#1A1A1A;fontStyle=1" vertex="1" parent="1">
          <mxGeometry x="250" y="1285" width="40" height="20" as="geometry" />
        </mxCell>
        <mxCell id="DBfyivFqZNMxuBKFV9pS-197" value="Purchase" style="text;html=1;strokeColor=none;fillColor=none;align=center;verticalAlign=middle;whiteSpace=wrap;rounded=0;sketch=0;fontSize=17;fontColor=#1A1A1A;fontStyle=1" vertex="1" parent="1">
          <mxGeometry x="320" y="1285" width="40" height="20" as="geometry" />
        </mxCell>
        <mxCell id="DBfyivFqZNMxuBKFV9pS-198" value="Contact" style="text;html=1;strokeColor=none;fillColor=none;align=center;verticalAlign=middle;whiteSpace=wrap;rounded=0;sketch=0;fontSize=17;fontColor=#1A1A1A;fontStyle=1" vertex="1" parent="1">
          <mxGeometry x="400" y="1285" width="40" height="20" as="geometry" />
        </mxCell>
        <mxCell id="DBfyivFqZNMxuBKFV9pS-199" value="Search" style="rounded=0;whiteSpace=wrap;html=1;sketch=0;fontSize=17;fontColor=#ffffff;strokeColor=#006EAF;fillColor=#1ba1e2;" vertex="1" parent="1">
          <mxGeometry x="373" y="1410" width="80" height="30" as="geometry" />
        </mxCell>
        <mxCell id="DBfyivFqZNMxuBKFV9pS-200" value="Search" style="rounded=0;whiteSpace=wrap;html=1;sketch=0;fontSize=17;fontColor=#ffffff;strokeColor=#006EAF;fillColor=#1ba1e2;" vertex="1" parent="1">
          <mxGeometry x="310" y="740" width="70" height="20" as="geometry" />
        </mxCell>
        <mxCell id="DBfyivFqZNMxuBKFV9pS-201" value="Tablet Screen" style="rounded=0;whiteSpace=wrap;html=1;sketch=0;fontSize=17;strokeColor=#666666;fillColor=#f5f5f5;gradientColor=#b3b3b3;fontStyle=1" vertex="1" parent="1">
          <mxGeometry x="130" y="640" width="350" height="20" as="geometry" />
        </mxCell>
        <mxCell id="DBfyivFqZNMxuBKFV9pS-202" value="" style="rounded=0;whiteSpace=wrap;html=1;sketch=0;fontSize=17;strokeColor=#666666;fillColor=#f5f5f5;direction=south;gradientColor=#b3b3b3;" vertex="1" parent="1">
          <mxGeometry x="190" y="140" width="230" height="440" as="geometry" />
        </mxCell>
        <mxCell id="DBfyivFqZNMxuBKFV9pS-203" value="" style="rounded=1;whiteSpace=wrap;html=1;sketch=0;fontSize=17;strokeColor=#d6b656;fillColor=#fff2cc;direction=south;gradientColor=#ffd966;" vertex="1" parent="1">
          <mxGeometry x="200" y="160" width="210" height="400" as="geometry" />
        </mxCell>
        <mxCell id="DBfyivFqZNMxuBKFV9pS-204" value="Coffee In The Morning" style="shape=tapeData;whiteSpace=wrap;html=1;perimeter=ellipsePerimeter;rounded=0;sketch=0;fontSize=11;strokeColor=#82b366;fillColor=#d5e8d4;gradientColor=#97d077;" vertex="1" parent="1">
          <mxGeometry x="280" y="170" width="50" height="60" as="geometry" />
        </mxCell>
        <mxCell id="DBfyivFqZNMxuBKFV9pS-205" value="Home" style="text;html=1;strokeColor=none;fillColor=none;align=center;verticalAlign=middle;whiteSpace=wrap;rounded=0;sketch=0;fontSize=11;fontStyle=1" vertex="1" parent="1">
          <mxGeometry x="285" y="250" width="40" height="20" as="geometry" />
        </mxCell>
        <mxCell id="DBfyivFqZNMxuBKFV9pS-206" value="About" style="text;html=1;strokeColor=none;fillColor=none;align=center;verticalAlign=middle;whiteSpace=wrap;rounded=0;sketch=0;fontSize=11;fontColor=#000000;fontStyle=1" vertex="1" parent="1">
          <mxGeometry x="285" y="270" width="40" height="20" as="geometry" />
        </mxCell>
        <mxCell id="DBfyivFqZNMxuBKFV9pS-207" value="Purchase" style="text;html=1;strokeColor=none;fillColor=none;align=center;verticalAlign=middle;whiteSpace=wrap;rounded=0;sketch=0;fontSize=11;fontColor=#000000;fontStyle=1" vertex="1" parent="1">
          <mxGeometry x="290" y="290" width="40" height="20" as="geometry" />
        </mxCell>
        <mxCell id="DBfyivFqZNMxuBKFV9pS-208" value="Coffee Gifs" style="strokeWidth=1;shadow=0;dashed=0;align=center;html=1;shape=mxgraph.mockup.forms.searchBox;mainText=;strokeColor2=#008cff;fontSize=17;align=left;spacingLeft=3;rounded=0;sketch=0;fontColor=#E6E6E6;" vertex="1" parent="1">
          <mxGeometry x="200" y="310" width="120" height="20" as="geometry" />
        </mxCell>
        <mxCell id="DBfyivFqZNMxuBKFV9pS-209" value="Search" style="rounded=0;whiteSpace=wrap;html=1;sketch=0;fontSize=17;fontColor=#ffffff;strokeColor=#006EAF;fillColor=#1ba1e2;" vertex="1" parent="1">
          <mxGeometry x="320" y="310" width="90" height="20" as="geometry" />
        </mxCell>
        <mxCell id="DBfyivFqZNMxuBKFV9pS-210" value="&lt;font color=&quot;#000000&quot;&gt;Gifs&lt;/font&gt;" style="verticalLabelPosition=bottom;shadow=0;dashed=0;align=center;html=1;verticalAlign=top;strokeWidth=1;shape=mxgraph.mockup.graphics.simpleIcon;strokeColor=#999999;fillColor=#ffffff;rounded=0;sketch=0;fontSize=17;fontColor=#E6E6E6;" vertex="1" parent="1">
          <mxGeometry x="210" y="340" width="190" height="100" as="geometry" />
        </mxCell>
        <mxCell id="DBfyivFqZNMxuBKFV9pS-216" value="" style="verticalLabelPosition=bottom;shadow=0;dashed=0;align=center;html=1;verticalAlign=top;strokeWidth=1;shape=mxgraph.mockup.graphics.simpleIcon;strokeColor=#999999;fillColor=#ffffff;rounded=0;sketch=0;fontSize=17;fontColor=#E6E6E6;" vertex="1" parent="1">
          <mxGeometry x="210" y="450" width="190" height="100" as="geometry" />
        </mxCell>
        <mxCell id="DBfyivFqZNMxuBKFV9pS-219" value="Cell Phone Screen" style="rounded=0;whiteSpace=wrap;html=1;sketch=0;fontSize=17;strokeColor=#666666;fillColor=#f5f5f5;gradientColor=#b3b3b3;fontStyle=1" vertex="1" parent="1">
          <mxGeometry x="190" y="120" width="230" height="20" as="geometry" />
        </mxCell>
        <mxCell id="DBfyivFqZNMxuBKFV9pS-220" value="Full Monitoring Screen" style="rounded=0;whiteSpace=wrap;html=1;sketch=0;fontSize=17;strokeColor=#666666;fillColor=#f5f5f5;fontStyle=1;gradientColor=#b3b3b3;" vertex="1" parent="1">
          <mxGeometry x="35" y="1250" width="570" height="20" as="geometry" />
        </mxCell>
        <mxCell id="DBfyivFqZNMxuBKFV9pS-222" value="Coffee In The Morning" style="shape=tapeData;whiteSpace=wrap;html=1;perimeter=ellipsePerimeter;rounded=0;sketch=0;fontSize=11;strokeColor=#82b366;fillColor=#d5e8d4;gradientColor=#97d077;" vertex="1" parent="1">
          <mxGeometry x="10" y="10" width="80" height="80" as="geometry" />
        </mxCell>
      </root>
    </mxGraphModel>
  </diagram>
</mxfile>
